<mxfile host="Electron" modified="2024-02-01T13:21:03.792Z" agent="Mozilla/5.0 (X11; Linux x86_64) AppleWebKit/537.36 (KHTML, like Gecko) draw.io/23.0.2 Chrome/120.0.6099.109 Electron/28.1.0 Safari/537.36" etag="BNw6yAUKdueGDjOBRyGO" version="23.0.2" type="device">
  <diagram name="Page-1" id="gKezTDWPGaHy0wov9wzG">
    <mxGraphModel dx="2206" dy="1338" grid="1" gridSize="10" guides="1" tooltips="1" connect="1" arrows="1" fold="1" page="1" pageScale="1" pageWidth="1169" pageHeight="827" math="0" shadow="0">
      <root>
        <mxCell id="0" />
        <mxCell id="1" parent="0" />
        <mxCell id="vnk1TbiymSxgk0gkjhPU-33" value="" style="rounded=0;whiteSpace=wrap;html=1;fillColor=#f8cecc;strokeColor=#b85450;" vertex="1" parent="1">
          <mxGeometry x="20" y="40" width="1140" height="260" as="geometry" />
        </mxCell>
        <mxCell id="vnk1TbiymSxgk0gkjhPU-6" value="" style="edgeStyle=orthogonalEdgeStyle;rounded=0;orthogonalLoop=1;jettySize=auto;html=1;" edge="1" parent="1" source="vnk1TbiymSxgk0gkjhPU-1" target="vnk1TbiymSxgk0gkjhPU-4">
          <mxGeometry relative="1" as="geometry" />
        </mxCell>
        <mxCell id="vnk1TbiymSxgk0gkjhPU-1" value="Project Plan &amp;amp;&lt;br&gt;Algorithm Research" style="rounded=1;whiteSpace=wrap;html=1;" vertex="1" parent="1">
          <mxGeometry x="40" y="70" width="120" height="60" as="geometry" />
        </mxCell>
        <mxCell id="vnk1TbiymSxgk0gkjhPU-13" value="" style="edgeStyle=orthogonalEdgeStyle;rounded=0;orthogonalLoop=1;jettySize=auto;html=1;" edge="1" parent="1" source="vnk1TbiymSxgk0gkjhPU-2" target="vnk1TbiymSxgk0gkjhPU-5">
          <mxGeometry relative="1" as="geometry" />
        </mxCell>
        <mxCell id="vnk1TbiymSxgk0gkjhPU-2" value="Matlab Function&lt;br&gt;Development" style="rounded=1;whiteSpace=wrap;html=1;" vertex="1" parent="1">
          <mxGeometry x="320" y="70" width="120" height="60" as="geometry" />
        </mxCell>
        <mxCell id="vnk1TbiymSxgk0gkjhPU-3" value="Unit Test&amp;nbsp; Instance Define" style="rounded=1;whiteSpace=wrap;html=1;" vertex="1" parent="1">
          <mxGeometry x="320" y="150" width="120" height="60" as="geometry" />
        </mxCell>
        <mxCell id="vnk1TbiymSxgk0gkjhPU-7" value="" style="edgeStyle=orthogonalEdgeStyle;rounded=0;orthogonalLoop=1;jettySize=auto;html=1;" edge="1" parent="1" source="vnk1TbiymSxgk0gkjhPU-4" target="vnk1TbiymSxgk0gkjhPU-2">
          <mxGeometry relative="1" as="geometry" />
        </mxCell>
        <mxCell id="vnk1TbiymSxgk0gkjhPU-8" style="edgeStyle=orthogonalEdgeStyle;rounded=0;orthogonalLoop=1;jettySize=auto;html=1;entryX=0;entryY=0.5;entryDx=0;entryDy=0;exitX=1;exitY=0.5;exitDx=0;exitDy=0;" edge="1" parent="1" source="vnk1TbiymSxgk0gkjhPU-4" target="vnk1TbiymSxgk0gkjhPU-3">
          <mxGeometry relative="1" as="geometry">
            <Array as="points">
              <mxPoint x="310" y="100" />
              <mxPoint x="310" y="180" />
            </Array>
          </mxGeometry>
        </mxCell>
        <mxCell id="vnk1TbiymSxgk0gkjhPU-4" value="Architecture Define" style="rounded=1;whiteSpace=wrap;html=1;" vertex="1" parent="1">
          <mxGeometry x="180" y="70" width="120" height="60" as="geometry" />
        </mxCell>
        <mxCell id="vnk1TbiymSxgk0gkjhPU-14" value="" style="edgeStyle=orthogonalEdgeStyle;rounded=0;orthogonalLoop=1;jettySize=auto;html=1;" edge="1" parent="1" source="vnk1TbiymSxgk0gkjhPU-5" target="vnk1TbiymSxgk0gkjhPU-12">
          <mxGeometry relative="1" as="geometry" />
        </mxCell>
        <mxCell id="vnk1TbiymSxgk0gkjhPU-5" value="Unit Test" style="rounded=1;whiteSpace=wrap;html=1;" vertex="1" parent="1">
          <mxGeometry x="460" y="70" width="120" height="60" as="geometry" />
        </mxCell>
        <mxCell id="vnk1TbiymSxgk0gkjhPU-27" value="" style="edgeStyle=orthogonalEdgeStyle;rounded=0;orthogonalLoop=1;jettySize=auto;html=1;" edge="1" parent="1" source="vnk1TbiymSxgk0gkjhPU-12" target="vnk1TbiymSxgk0gkjhPU-24">
          <mxGeometry relative="1" as="geometry" />
        </mxCell>
        <mxCell id="vnk1TbiymSxgk0gkjhPU-12" value="Regression Test" style="rounded=1;whiteSpace=wrap;html=1;" vertex="1" parent="1">
          <mxGeometry x="600" y="70" width="120" height="60" as="geometry" />
        </mxCell>
        <mxCell id="vnk1TbiymSxgk0gkjhPU-17" style="edgeStyle=orthogonalEdgeStyle;rounded=0;orthogonalLoop=1;jettySize=auto;html=1;exitX=0;exitY=0.5;exitDx=0;exitDy=0;endArrow=none;endFill=0;startArrow=classic;startFill=1;" edge="1" parent="1" source="vnk1TbiymSxgk0gkjhPU-16">
          <mxGeometry relative="1" as="geometry">
            <mxPoint x="310" y="180" as="targetPoint" />
            <Array as="points">
              <mxPoint x="310" y="260" />
            </Array>
          </mxGeometry>
        </mxCell>
        <mxCell id="vnk1TbiymSxgk0gkjhPU-16" value="UI design" style="rounded=1;whiteSpace=wrap;html=1;" vertex="1" parent="1">
          <mxGeometry x="320" y="230" width="120" height="60" as="geometry" />
        </mxCell>
        <mxCell id="vnk1TbiymSxgk0gkjhPU-20" value="" style="edgeStyle=orthogonalEdgeStyle;rounded=0;orthogonalLoop=1;jettySize=auto;html=1;" edge="1" parent="1">
          <mxGeometry relative="1" as="geometry">
            <mxPoint x="440" y="100" as="sourcePoint" />
            <mxPoint x="460" y="100" as="targetPoint" />
          </mxGeometry>
        </mxCell>
        <mxCell id="vnk1TbiymSxgk0gkjhPU-21" value="" style="endArrow=none;html=1;rounded=0;" edge="1" parent="1">
          <mxGeometry width="50" height="50" relative="1" as="geometry">
            <mxPoint x="440" y="179.8" as="sourcePoint" />
            <mxPoint x="450" y="179.8" as="targetPoint" />
          </mxGeometry>
        </mxCell>
        <mxCell id="vnk1TbiymSxgk0gkjhPU-22" value="" style="endArrow=none;html=1;rounded=0;" edge="1" parent="1">
          <mxGeometry width="50" height="50" relative="1" as="geometry">
            <mxPoint x="440" y="259.8" as="sourcePoint" />
            <mxPoint x="450" y="259.8" as="targetPoint" />
          </mxGeometry>
        </mxCell>
        <mxCell id="vnk1TbiymSxgk0gkjhPU-23" value="" style="endArrow=none;html=1;rounded=0;" edge="1" parent="1">
          <mxGeometry width="50" height="50" relative="1" as="geometry">
            <mxPoint x="450" y="100" as="sourcePoint" />
            <mxPoint x="450" y="260" as="targetPoint" />
          </mxGeometry>
        </mxCell>
        <mxCell id="vnk1TbiymSxgk0gkjhPU-28" value="" style="edgeStyle=orthogonalEdgeStyle;rounded=0;orthogonalLoop=1;jettySize=auto;html=1;" edge="1" parent="1" source="vnk1TbiymSxgk0gkjhPU-24" target="vnk1TbiymSxgk0gkjhPU-25">
          <mxGeometry relative="1" as="geometry" />
        </mxCell>
        <mxCell id="vnk1TbiymSxgk0gkjhPU-24" value="System Intergration" style="rounded=1;whiteSpace=wrap;html=1;" vertex="1" parent="1">
          <mxGeometry x="740" y="70" width="120" height="60" as="geometry" />
        </mxCell>
        <mxCell id="vnk1TbiymSxgk0gkjhPU-90" value="" style="edgeStyle=orthogonalEdgeStyle;rounded=0;orthogonalLoop=1;jettySize=auto;html=1;" edge="1" parent="1" source="vnk1TbiymSxgk0gkjhPU-25" target="vnk1TbiymSxgk0gkjhPU-89">
          <mxGeometry relative="1" as="geometry" />
        </mxCell>
        <mxCell id="vnk1TbiymSxgk0gkjhPU-25" value="E2E Test" style="rounded=1;whiteSpace=wrap;html=1;" vertex="1" parent="1">
          <mxGeometry x="880" y="70" width="120" height="60" as="geometry" />
        </mxCell>
        <mxCell id="vnk1TbiymSxgk0gkjhPU-26" value="Laplace Comparation" style="rounded=1;whiteSpace=wrap;html=1;" vertex="1" parent="1">
          <mxGeometry x="880" y="150" width="120" height="60" as="geometry" />
        </mxCell>
        <mxCell id="vnk1TbiymSxgk0gkjhPU-29" value="" style="endArrow=classic;html=1;rounded=0;" edge="1" parent="1">
          <mxGeometry width="50" height="50" relative="1" as="geometry">
            <mxPoint x="870" y="180" as="sourcePoint" />
            <mxPoint x="880" y="179.8" as="targetPoint" />
          </mxGeometry>
        </mxCell>
        <mxCell id="vnk1TbiymSxgk0gkjhPU-30" value="" style="endArrow=none;html=1;rounded=0;" edge="1" parent="1">
          <mxGeometry width="50" height="50" relative="1" as="geometry">
            <mxPoint x="870" y="180" as="sourcePoint" />
            <mxPoint x="870" y="100" as="targetPoint" />
          </mxGeometry>
        </mxCell>
        <mxCell id="vnk1TbiymSxgk0gkjhPU-34" value="Matlab Project Imp" style="rounded=0;whiteSpace=wrap;html=1;fillColor=#d5e8d4;strokeColor=#82b366;" vertex="1" parent="1">
          <mxGeometry x="1040" y="40" width="120" height="30" as="geometry" />
        </mxCell>
        <mxCell id="vnk1TbiymSxgk0gkjhPU-61" value="" style="rounded=0;whiteSpace=wrap;html=1;fillColor=#dae8fc;strokeColor=#6c8ebf;" vertex="1" parent="1">
          <mxGeometry x="20" y="320" width="1140" height="260" as="geometry" />
        </mxCell>
        <mxCell id="vnk1TbiymSxgk0gkjhPU-88" value="" style="edgeStyle=orthogonalEdgeStyle;rounded=0;orthogonalLoop=1;jettySize=auto;html=1;" edge="1" parent="1" source="vnk1TbiymSxgk0gkjhPU-63" target="vnk1TbiymSxgk0gkjhPU-87">
          <mxGeometry relative="1" as="geometry" />
        </mxCell>
        <mxCell id="vnk1TbiymSxgk0gkjhPU-63" value="Porting code from matlab to python" style="rounded=1;whiteSpace=wrap;html=1;" vertex="1" parent="1">
          <mxGeometry x="40" y="350" width="120" height="60" as="geometry" />
        </mxCell>
        <mxCell id="vnk1TbiymSxgk0gkjhPU-64" value="" style="edgeStyle=orthogonalEdgeStyle;rounded=0;orthogonalLoop=1;jettySize=auto;html=1;" edge="1" source="vnk1TbiymSxgk0gkjhPU-65" target="vnk1TbiymSxgk0gkjhPU-71" parent="1">
          <mxGeometry relative="1" as="geometry" />
        </mxCell>
        <mxCell id="vnk1TbiymSxgk0gkjhPU-65" value="Python Function&lt;br&gt;Development" style="rounded=1;whiteSpace=wrap;html=1;" vertex="1" parent="1">
          <mxGeometry x="320" y="350" width="120" height="60" as="geometry" />
        </mxCell>
        <mxCell id="vnk1TbiymSxgk0gkjhPU-66" value="Unit Test&amp;nbsp; Instance Define" style="rounded=1;whiteSpace=wrap;html=1;" vertex="1" parent="1">
          <mxGeometry x="320" y="430" width="120" height="60" as="geometry" />
        </mxCell>
        <mxCell id="vnk1TbiymSxgk0gkjhPU-67" value="" style="edgeStyle=orthogonalEdgeStyle;rounded=0;orthogonalLoop=1;jettySize=auto;html=1;" edge="1" target="vnk1TbiymSxgk0gkjhPU-65" parent="1">
          <mxGeometry relative="1" as="geometry">
            <mxPoint x="300" y="380" as="sourcePoint" />
          </mxGeometry>
        </mxCell>
        <mxCell id="vnk1TbiymSxgk0gkjhPU-68" style="edgeStyle=orthogonalEdgeStyle;rounded=0;orthogonalLoop=1;jettySize=auto;html=1;entryX=0;entryY=0.5;entryDx=0;entryDy=0;exitX=1;exitY=0.5;exitDx=0;exitDy=0;" edge="1" target="vnk1TbiymSxgk0gkjhPU-66" parent="1">
          <mxGeometry relative="1" as="geometry">
            <mxPoint x="300" y="380" as="sourcePoint" />
            <Array as="points">
              <mxPoint x="310" y="380" />
              <mxPoint x="310" y="460" />
            </Array>
          </mxGeometry>
        </mxCell>
        <mxCell id="vnk1TbiymSxgk0gkjhPU-70" value="" style="edgeStyle=orthogonalEdgeStyle;rounded=0;orthogonalLoop=1;jettySize=auto;html=1;" edge="1" source="vnk1TbiymSxgk0gkjhPU-71" target="vnk1TbiymSxgk0gkjhPU-73" parent="1">
          <mxGeometry relative="1" as="geometry" />
        </mxCell>
        <mxCell id="vnk1TbiymSxgk0gkjhPU-71" value="Unit Test" style="rounded=1;whiteSpace=wrap;html=1;" vertex="1" parent="1">
          <mxGeometry x="460" y="350" width="120" height="60" as="geometry" />
        </mxCell>
        <mxCell id="vnk1TbiymSxgk0gkjhPU-72" value="" style="edgeStyle=orthogonalEdgeStyle;rounded=0;orthogonalLoop=1;jettySize=auto;html=1;" edge="1" source="vnk1TbiymSxgk0gkjhPU-73" target="vnk1TbiymSxgk0gkjhPU-81" parent="1">
          <mxGeometry relative="1" as="geometry" />
        </mxCell>
        <mxCell id="vnk1TbiymSxgk0gkjhPU-73" value="Regression Test" style="rounded=1;whiteSpace=wrap;html=1;" vertex="1" parent="1">
          <mxGeometry x="600" y="350" width="120" height="60" as="geometry" />
        </mxCell>
        <mxCell id="vnk1TbiymSxgk0gkjhPU-74" style="edgeStyle=orthogonalEdgeStyle;rounded=0;orthogonalLoop=1;jettySize=auto;html=1;exitX=0;exitY=0.5;exitDx=0;exitDy=0;endArrow=none;endFill=0;startArrow=classic;startFill=1;" edge="1" source="vnk1TbiymSxgk0gkjhPU-75" parent="1">
          <mxGeometry relative="1" as="geometry">
            <mxPoint x="310" y="460" as="targetPoint" />
            <Array as="points">
              <mxPoint x="310" y="540" />
            </Array>
          </mxGeometry>
        </mxCell>
        <mxCell id="vnk1TbiymSxgk0gkjhPU-75" value="UI design" style="rounded=1;whiteSpace=wrap;html=1;" vertex="1" parent="1">
          <mxGeometry x="320" y="510" width="120" height="60" as="geometry" />
        </mxCell>
        <mxCell id="vnk1TbiymSxgk0gkjhPU-76" value="" style="edgeStyle=orthogonalEdgeStyle;rounded=0;orthogonalLoop=1;jettySize=auto;html=1;" edge="1" parent="1">
          <mxGeometry relative="1" as="geometry">
            <mxPoint x="440" y="380" as="sourcePoint" />
            <mxPoint x="460" y="380" as="targetPoint" />
          </mxGeometry>
        </mxCell>
        <mxCell id="vnk1TbiymSxgk0gkjhPU-77" value="" style="endArrow=none;html=1;rounded=0;" edge="1" parent="1">
          <mxGeometry width="50" height="50" relative="1" as="geometry">
            <mxPoint x="440" y="459.8" as="sourcePoint" />
            <mxPoint x="450" y="459.8" as="targetPoint" />
          </mxGeometry>
        </mxCell>
        <mxCell id="vnk1TbiymSxgk0gkjhPU-78" value="" style="endArrow=none;html=1;rounded=0;" edge="1" parent="1">
          <mxGeometry width="50" height="50" relative="1" as="geometry">
            <mxPoint x="440" y="539.8" as="sourcePoint" />
            <mxPoint x="450" y="539.8" as="targetPoint" />
          </mxGeometry>
        </mxCell>
        <mxCell id="vnk1TbiymSxgk0gkjhPU-79" value="" style="endArrow=none;html=1;rounded=0;" edge="1" parent="1">
          <mxGeometry width="50" height="50" relative="1" as="geometry">
            <mxPoint x="450" y="380" as="sourcePoint" />
            <mxPoint x="450" y="540" as="targetPoint" />
          </mxGeometry>
        </mxCell>
        <mxCell id="vnk1TbiymSxgk0gkjhPU-80" value="" style="edgeStyle=orthogonalEdgeStyle;rounded=0;orthogonalLoop=1;jettySize=auto;html=1;" edge="1" source="vnk1TbiymSxgk0gkjhPU-81" target="vnk1TbiymSxgk0gkjhPU-82" parent="1">
          <mxGeometry relative="1" as="geometry" />
        </mxCell>
        <mxCell id="vnk1TbiymSxgk0gkjhPU-81" value="System Intergration" style="rounded=1;whiteSpace=wrap;html=1;" vertex="1" parent="1">
          <mxGeometry x="740" y="350" width="120" height="60" as="geometry" />
        </mxCell>
        <mxCell id="vnk1TbiymSxgk0gkjhPU-92" value="" style="edgeStyle=orthogonalEdgeStyle;rounded=0;orthogonalLoop=1;jettySize=auto;html=1;" edge="1" parent="1" source="vnk1TbiymSxgk0gkjhPU-82" target="vnk1TbiymSxgk0gkjhPU-91">
          <mxGeometry relative="1" as="geometry" />
        </mxCell>
        <mxCell id="vnk1TbiymSxgk0gkjhPU-82" value="E2E Test" style="rounded=1;whiteSpace=wrap;html=1;" vertex="1" parent="1">
          <mxGeometry x="880" y="350" width="120" height="60" as="geometry" />
        </mxCell>
        <mxCell id="vnk1TbiymSxgk0gkjhPU-83" value="Laplace Comparation" style="rounded=1;whiteSpace=wrap;html=1;" vertex="1" parent="1">
          <mxGeometry x="880" y="430" width="120" height="60" as="geometry" />
        </mxCell>
        <mxCell id="vnk1TbiymSxgk0gkjhPU-84" value="" style="endArrow=classic;html=1;rounded=0;" edge="1" parent="1">
          <mxGeometry width="50" height="50" relative="1" as="geometry">
            <mxPoint x="870" y="460" as="sourcePoint" />
            <mxPoint x="880" y="459.8" as="targetPoint" />
          </mxGeometry>
        </mxCell>
        <mxCell id="vnk1TbiymSxgk0gkjhPU-85" value="" style="endArrow=none;html=1;rounded=0;" edge="1" parent="1">
          <mxGeometry width="50" height="50" relative="1" as="geometry">
            <mxPoint x="870" y="460" as="sourcePoint" />
            <mxPoint x="870" y="380" as="targetPoint" />
          </mxGeometry>
        </mxCell>
        <mxCell id="vnk1TbiymSxgk0gkjhPU-86" value="Python Project Imp" style="rounded=0;whiteSpace=wrap;html=1;fillColor=#d5e8d4;strokeColor=#82b366;" vertex="1" parent="1">
          <mxGeometry x="1040" y="320" width="120" height="30" as="geometry" />
        </mxCell>
        <mxCell id="vnk1TbiymSxgk0gkjhPU-87" value="Build Tri-map&lt;br&gt;Generation Core" style="rounded=1;whiteSpace=wrap;html=1;" vertex="1" parent="1">
          <mxGeometry x="180" y="350" width="120" height="60" as="geometry" />
        </mxCell>
        <mxCell id="vnk1TbiymSxgk0gkjhPU-89" value="Performance Evaluation and Tunning" style="rounded=1;whiteSpace=wrap;html=1;" vertex="1" parent="1">
          <mxGeometry x="1020" y="70" width="120" height="60" as="geometry" />
        </mxCell>
        <mxCell id="vnk1TbiymSxgk0gkjhPU-91" value="Performance Evaluation and Tunning" style="rounded=1;whiteSpace=wrap;html=1;" vertex="1" parent="1">
          <mxGeometry x="1020" y="350" width="120" height="60" as="geometry" />
        </mxCell>
      </root>
    </mxGraphModel>
  </diagram>
</mxfile>
